<?xml version="1.0" encoding="utf-8"?>
<!-- Generator: Adobe Illustrator 22.0.1, SVG Export Plug-In . SVG Version: 6.00 Build 0)  -->
<svg version="1.1" id="Final-Solo-Crea_1_" xmlns="http://www.w3.org/2000/svg" xmlns:xlink="http://www.w3.org/1999/xlink" x="0px"
	 y="0px" viewBox="0 0 415.2 266.5" style="enable-background:new 0 0 415.2 266.5;" xml:space="preserve" width="415.2px" height="266.5px">
<style type="text/css">
	.st0{display:none;fill:none;stroke:#00ADEE;stroke-width:3.4328;stroke-miterlimit:10;}
	.st1{display:none;fill:none;stroke:#FF6C86;stroke-width:4.0729;stroke-miterlimit:10;}
	.st2{fill:#FFFFFF;}
	.st3{fill:#FF7C00;}
	.st4{fill:#FF6C86;}
	.st5{fill:#9577FF;}
	.st6{fill:#FFC502;}
	.st7{fill:#3EDB94;}
	.st8{fill:#FEC300;}
	.st9{fill:#A8E1EE;}
	.st10{fill:#02C1FF;}
</style>
<rect x="80.1" y="-52.5" class="st1" width="704.1" height="571.7"/>
<g>
	<g>
		<g>
			<path class="st2" d="M311.6,173.8l11.6,11.6l11.6,11.6l-7,7.1l-0.9,0.9l-1,1l0,0l-2.6,2.6l-11.6,11.6l-9-9l11.6-11.6l2.6-2.6
				l-2.6-2.6l-11.6-11.6L311.6,173.8 M311.6,168.6l-14.2,14.2l14.2,14.2l-14.2,14.2l14.2,14.2l14.2-14.2l0,0l3.6-3.6l0.9-0.9
				l9.6-9.6l-14.2-14.2L311.6,168.6L311.6,168.6z"/>
		</g>
	</g>
	<polygon class="st3" points="301.9,28.4 291.6,18 281.2,28.4 291.6,38.7 281.2,49.1 291.6,59.5 301.9,49.1 301.9,49.1 304.6,46.5
		305.3,45.8 305.3,45.8 312.3,38.7 	"/>
	<polygon class="st4" points="134.9,158.2 124.6,147.8 114.2,158.2 124.6,168.6 114.2,179 124.6,189.4 134.9,179 134.9,179
		137.6,176.3 138.3,175.6 138.3,175.6 145.3,168.6 	"/>
	<polygon class="st5" points="240.9,49.5 204.1,12.7 167.3,49.5 204.1,86.2 167.3,123 204.1,159.7 240.8,123 240.9,123 250.2,113.6
		252.7,111.1 252.7,111.1 277.6,86.2 	"/>
	<polygon class="st6" points="80.9,57.3 64,40.4 47.1,57.3 64,74.2 47.1,91.1 64,108 80.9,91.1 80.9,91.1 85.2,86.8 86.3,85.7
		86.3,85.7 97.8,74.2 	"/>
	<polygon class="st7" points="194.3,244.6 187.5,237.8 180.8,244.6 187.5,251.4 180.8,258.2 187.5,265 194.3,258.2 194.3,258.2
		196.1,256.5 196.5,256 196.5,256 201.1,251.4 	"/>
	<g>
		<g>
			<path class="st8" d="M251.4,176.1l17.7-17.7l1.3,1.3l-17.7,17.7L251.4,176.1z"/>
		</g>
		<g>
			<path class="st8" d="M252.7,142l17.7,17.7l-1.3,1.3l-17.7-17.7L252.7,142z"/>
		</g>
	</g>
	<g>
		<g>
			<path class="st9" d="M110.4,34.1l17.7-17.7l1.3,1.3l-17.7,17.7L110.4,34.1z"/>
		</g>
		<g>
			<path class="st9" d="M111.7,0l17.7,17.7l-1.3,1.3L110.4,1.3L111.7,0z"/>
		</g>
	</g>
	<polygon class="st10" points="391,114.8 369.9,93.6 348.8,114.8 369.9,135.8 348.8,157 369.9,178.1 391,157 391,157 396.4,151.6
		397.8,150.2 397.8,150.2 412.1,135.8 	"/>
</g>
</svg>
